<mxfile host="app.diagrams.net" modified="2022-04-07T10:21:11.240Z" agent="5.0 (Macintosh; Intel Mac OS X 10_15_7) AppleWebKit/537.36 (KHTML, like Gecko) Chrome/100.0.4896.75 Safari/537.36" etag="W-Taw3F86fvLOPWI2S6g" version="17.4.0" type="github">
  <diagram id="PhYCmYSEU7RuguvKFZsH" name="Page-1">
    <mxGraphModel dx="2066" dy="1154" grid="0" gridSize="10" guides="1" tooltips="1" connect="1" arrows="1" fold="1" page="1" pageScale="1" pageWidth="2339" pageHeight="3300" math="0" shadow="0">
      <root>
        <mxCell id="0" />
        <mxCell id="1" parent="0" />
        <mxCell id="tyAwpt8ZHr0P3HQWV30K-1" style="edgeStyle=orthogonalEdgeStyle;curved=1;rounded=0;orthogonalLoop=1;jettySize=auto;html=1;exitX=0;exitY=0;exitDx=0;exitDy=30;entryX=0.5;entryY=1;entryDx=0;entryDy=0;startArrow=none;startFill=0;exitPerimeter=0;" parent="1" source="tJhC_meMdQzW6-Cx2cmD-1" target="tyAwpt8ZHr0P3HQWV30K-25" edge="1">
          <mxGeometry relative="1" as="geometry">
            <mxPoint x="1264.5" y="675" as="sourcePoint" />
          </mxGeometry>
        </mxCell>
        <mxCell id="tyAwpt8ZHr0P3HQWV30K-2" value="2.1 扫码安装" style="edgeLabel;html=1;align=center;verticalAlign=middle;resizable=0;points=[];" parent="tyAwpt8ZHr0P3HQWV30K-1" vertex="1" connectable="0">
          <mxGeometry x="-0.0195" y="-62" relative="1" as="geometry">
            <mxPoint as="offset" />
          </mxGeometry>
        </mxCell>
        <mxCell id="tyAwpt8ZHr0P3HQWV30K-9" value="阿里云 MQTT" style="ellipse;shape=cloud;whiteSpace=wrap;html=1;fillColor=#dae8fc;strokeColor=#6c8ebf;" parent="1" vertex="1">
          <mxGeometry x="1204.5" y="195" width="120" height="80" as="geometry" />
        </mxCell>
        <mxCell id="tyAwpt8ZHr0P3HQWV30K-10" style="edgeStyle=orthogonalEdgeStyle;curved=1;rounded=0;orthogonalLoop=1;jettySize=auto;html=1;exitX=0.875;exitY=0.5;exitDx=0;exitDy=0;exitPerimeter=0;entryX=0.16;entryY=0.55;entryDx=0;entryDy=0;entryPerimeter=0;startArrow=none;startFill=0;" parent="1" source="tyAwpt8ZHr0P3HQWV30K-16" target="tyAwpt8ZHr0P3HQWV30K-28" edge="1">
          <mxGeometry relative="1" as="geometry">
            <Array as="points">
              <mxPoint x="961" y="231" />
              <mxPoint x="961" y="95" />
            </Array>
          </mxGeometry>
        </mxCell>
        <mxCell id="tyAwpt8ZHr0P3HQWV30K-11" value="1.2 构建打包" style="edgeLabel;html=1;align=center;verticalAlign=middle;resizable=0;points=[];" parent="tyAwpt8ZHr0P3HQWV30K-10" vertex="1" connectable="0">
          <mxGeometry x="-0.0361" y="-1" relative="1" as="geometry">
            <mxPoint as="offset" />
          </mxGeometry>
        </mxCell>
        <mxCell id="tyAwpt8ZHr0P3HQWV30K-14" style="edgeStyle=orthogonalEdgeStyle;curved=1;rounded=0;orthogonalLoop=1;jettySize=auto;html=1;exitX=0.55;exitY=0.95;exitDx=0;exitDy=0;exitPerimeter=0;entryX=0.625;entryY=0.2;entryDx=0;entryDy=0;entryPerimeter=0;startArrow=none;startFill=0;" parent="1" source="tyAwpt8ZHr0P3HQWV30K-16" target="tyAwpt8ZHr0P3HQWV30K-60" edge="1">
          <mxGeometry relative="1" as="geometry" />
        </mxCell>
        <mxCell id="tyAwpt8ZHr0P3HQWV30K-15" value="1.4 推送构建打包结果&lt;br&gt;2.8 推送设备链接状态" style="edgeLabel;html=1;align=center;verticalAlign=middle;resizable=0;points=[];" parent="tyAwpt8ZHr0P3HQWV30K-14" vertex="1" connectable="0">
          <mxGeometry x="0.0539" y="-1" relative="1" as="geometry">
            <mxPoint as="offset" />
          </mxGeometry>
        </mxCell>
        <mxCell id="tyAwpt8ZHr0P3HQWV30K-16" value="研发资产服务" style="ellipse;shape=cloud;whiteSpace=wrap;html=1;fillColor=#dae8fc;strokeColor=#6c8ebf;" parent="1" vertex="1">
          <mxGeometry x="823" y="191" width="120" height="80" as="geometry" />
        </mxCell>
        <mxCell id="tyAwpt8ZHr0P3HQWV30K-20" style="edgeStyle=orthogonalEdgeStyle;curved=1;rounded=0;orthogonalLoop=1;jettySize=auto;html=1;exitX=0;exitY=0;exitDx=50;exitDy=0;entryX=0.55;entryY=0.95;entryDx=0;entryDy=0;entryPerimeter=0;startArrow=none;startFill=0;exitPerimeter=0;" parent="1" source="tJhC_meMdQzW6-Cx2cmD-1" target="tyAwpt8ZHr0P3HQWV30K-16" edge="1">
          <mxGeometry relative="1" as="geometry">
            <mxPoint x="1204" y="597.5" as="sourcePoint" />
          </mxGeometry>
        </mxCell>
        <mxCell id="tyAwpt8ZHr0P3HQWV30K-21" value="2.2 启动 APP 上报设备 SN 号，获取 MQTT 连接信息&lt;br&gt;2.3 设备心跳" style="edgeLabel;html=1;align=center;verticalAlign=middle;resizable=0;points=[];" parent="tyAwpt8ZHr0P3HQWV30K-20" vertex="1" connectable="0">
          <mxGeometry x="0.2626" y="-66" relative="1" as="geometry">
            <mxPoint y="1" as="offset" />
          </mxGeometry>
        </mxCell>
        <mxCell id="tyAwpt8ZHr0P3HQWV30K-24" value="1. 1 链接设备" style="edgeStyle=orthogonalEdgeStyle;curved=1;rounded=0;orthogonalLoop=1;jettySize=auto;html=1;exitX=1;exitY=0.5;exitDx=0;exitDy=0;entryX=0.16;entryY=0.55;entryDx=0;entryDy=0;entryPerimeter=0;startArrow=none;startFill=0;" parent="1" source="tyAwpt8ZHr0P3HQWV30K-25" target="tyAwpt8ZHr0P3HQWV30K-16" edge="1">
          <mxGeometry relative="1" as="geometry" />
        </mxCell>
        <mxCell id="tyAwpt8ZHr0P3HQWV30K-25" value="IDE" style="ellipse;whiteSpace=wrap;html=1;fillColor=#d5e8d4;strokeColor=#82b366;" parent="1" vertex="1">
          <mxGeometry x="593" y="195" width="120" height="80" as="geometry" />
        </mxCell>
        <mxCell id="tyAwpt8ZHr0P3HQWV30K-26" style="edgeStyle=orthogonalEdgeStyle;curved=1;rounded=0;orthogonalLoop=1;jettySize=auto;html=1;exitX=0.07;exitY=0.4;exitDx=0;exitDy=0;exitPerimeter=0;entryX=0.4;entryY=0.1;entryDx=0;entryDy=0;entryPerimeter=0;startArrow=none;startFill=0;" parent="1" source="tyAwpt8ZHr0P3HQWV30K-28" target="tyAwpt8ZHr0P3HQWV30K-16" edge="1">
          <mxGeometry relative="1" as="geometry" />
        </mxCell>
        <mxCell id="tyAwpt8ZHr0P3HQWV30K-27" value="1.3 构建打包成消息" style="edgeLabel;html=1;align=center;verticalAlign=middle;resizable=0;points=[];" parent="tyAwpt8ZHr0P3HQWV30K-26" vertex="1" connectable="0">
          <mxGeometry x="-0.1081" y="25" relative="1" as="geometry">
            <mxPoint as="offset" />
          </mxGeometry>
        </mxCell>
        <mxCell id="tyAwpt8ZHr0P3HQWV30K-28" value="构建打包服务" style="ellipse;shape=cloud;whiteSpace=wrap;html=1;fillColor=#dae8fc;strokeColor=#6c8ebf;" parent="1" vertex="1">
          <mxGeometry x="1039" y="51" width="120" height="80" as="geometry" />
        </mxCell>
        <mxCell id="tJhC_meMdQzW6-Cx2cmD-6" style="edgeStyle=orthogonalEdgeStyle;curved=1;rounded=0;orthogonalLoop=1;jettySize=auto;html=1;exitX=0.55;exitY=0.95;exitDx=0;exitDy=0;exitPerimeter=0;entryX=0;entryY=0;entryDx=50;entryDy=0;entryPerimeter=0;" parent="1" source="tyAwpt8ZHr0P3HQWV30K-31" target="tJhC_meMdQzW6-Cx2cmD-4" edge="1">
          <mxGeometry relative="1" as="geometry" />
        </mxCell>
        <mxCell id="tJhC_meMdQzW6-Cx2cmD-7" value="1.4 消息下发" style="edgeLabel;html=1;align=center;verticalAlign=middle;resizable=0;points=[];" parent="tJhC_meMdQzW6-Cx2cmD-6" vertex="1" connectable="0">
          <mxGeometry x="-0.122" y="-3" relative="1" as="geometry">
            <mxPoint as="offset" />
          </mxGeometry>
        </mxCell>
        <mxCell id="tyAwpt8ZHr0P3HQWV30K-31" value="阿里云 MQTT" style="ellipse;shape=cloud;whiteSpace=wrap;html=1;fillColor=#dae8fc;strokeColor=#6c8ebf;" parent="1" vertex="1">
          <mxGeometry x="1135" y="957" width="120" height="80" as="geometry" />
        </mxCell>
        <mxCell id="tyAwpt8ZHr0P3HQWV30K-35" style="edgeStyle=orthogonalEdgeStyle;curved=1;rounded=0;orthogonalLoop=1;jettySize=auto;html=1;exitX=0.875;exitY=0.5;exitDx=0;exitDy=0;exitPerimeter=0;entryX=0.16;entryY=0.55;entryDx=0;entryDy=0;entryPerimeter=0;startArrow=none;startFill=0;" parent="1" source="tyAwpt8ZHr0P3HQWV30K-41" target="tyAwpt8ZHr0P3HQWV30K-51" edge="1">
          <mxGeometry relative="1" as="geometry">
            <Array as="points">
              <mxPoint x="892" y="993" />
              <mxPoint x="892" y="857" />
            </Array>
          </mxGeometry>
        </mxCell>
        <mxCell id="tyAwpt8ZHr0P3HQWV30K-36" value="1.2 构建打包" style="edgeLabel;html=1;align=center;verticalAlign=middle;resizable=0;points=[];" parent="tyAwpt8ZHr0P3HQWV30K-35" vertex="1" connectable="0">
          <mxGeometry x="-0.0361" y="-1" relative="1" as="geometry">
            <mxPoint as="offset" />
          </mxGeometry>
        </mxCell>
        <mxCell id="tyAwpt8ZHr0P3HQWV30K-37" style="edgeStyle=orthogonalEdgeStyle;curved=1;rounded=0;orthogonalLoop=1;jettySize=auto;html=1;exitX=0.875;exitY=0.5;exitDx=0;exitDy=0;exitPerimeter=0;entryX=0.16;entryY=0.55;entryDx=0;entryDy=0;entryPerimeter=0;startArrow=none;startFill=0;" parent="1" source="tyAwpt8ZHr0P3HQWV30K-41" target="tyAwpt8ZHr0P3HQWV30K-31" edge="1">
          <mxGeometry relative="1" as="geometry" />
        </mxCell>
        <mxCell id="tyAwpt8ZHr0P3HQWV30K-38" value="1.3 推送更新内容" style="edgeLabel;html=1;align=center;verticalAlign=middle;resizable=0;points=[];" parent="tyAwpt8ZHr0P3HQWV30K-37" vertex="1" connectable="0">
          <mxGeometry x="-0.1887" y="-3" relative="1" as="geometry">
            <mxPoint as="offset" />
          </mxGeometry>
        </mxCell>
        <mxCell id="tyAwpt8ZHr0P3HQWV30K-39" style="edgeStyle=orthogonalEdgeStyle;curved=1;rounded=0;orthogonalLoop=1;jettySize=auto;html=1;exitX=0.55;exitY=0.95;exitDx=0;exitDy=0;exitPerimeter=0;entryX=0.4;entryY=0.1;entryDx=0;entryDy=0;entryPerimeter=0;startArrow=none;startFill=0;" parent="1" source="tyAwpt8ZHr0P3HQWV30K-41" target="tyAwpt8ZHr0P3HQWV30K-54" edge="1">
          <mxGeometry relative="1" as="geometry" />
        </mxCell>
        <mxCell id="tyAwpt8ZHr0P3HQWV30K-40" value="1.7 推送设备消息" style="edgeLabel;html=1;align=center;verticalAlign=middle;resizable=0;points=[];" parent="tyAwpt8ZHr0P3HQWV30K-39" vertex="1" connectable="0">
          <mxGeometry x="-0.0117" y="3" relative="1" as="geometry">
            <mxPoint as="offset" />
          </mxGeometry>
        </mxCell>
        <mxCell id="tJhC_meMdQzW6-Cx2cmD-5" value="1.6 消费指定 topic 的消息" style="edgeStyle=orthogonalEdgeStyle;curved=1;rounded=0;orthogonalLoop=1;jettySize=auto;html=1;exitX=0.55;exitY=0.95;exitDx=0;exitDy=0;exitPerimeter=0;entryX=0.55;entryY=0.95;entryDx=0;entryDy=0;entryPerimeter=0;" parent="1" source="tyAwpt8ZHr0P3HQWV30K-41" target="tyAwpt8ZHr0P3HQWV30K-31" edge="1">
          <mxGeometry relative="1" as="geometry">
            <Array as="points">
              <mxPoint x="820" y="1052" />
              <mxPoint x="1005" y="1052" />
              <mxPoint x="1005" y="1049" />
              <mxPoint x="1201" y="1049" />
            </Array>
          </mxGeometry>
        </mxCell>
        <mxCell id="tyAwpt8ZHr0P3HQWV30K-41" value="研发资产服务" style="ellipse;shape=cloud;whiteSpace=wrap;html=1;fillColor=#dae8fc;strokeColor=#6c8ebf;" parent="1" vertex="1">
          <mxGeometry x="754" y="953" width="120" height="80" as="geometry" />
        </mxCell>
        <mxCell id="tyAwpt8ZHr0P3HQWV30K-49" value="1. 1 同步更新" style="edgeStyle=orthogonalEdgeStyle;curved=1;rounded=0;orthogonalLoop=1;jettySize=auto;html=1;exitX=1;exitY=0.5;exitDx=0;exitDy=0;entryX=0.16;entryY=0.55;entryDx=0;entryDy=0;entryPerimeter=0;startArrow=none;startFill=0;" parent="1" source="tyAwpt8ZHr0P3HQWV30K-50" target="tyAwpt8ZHr0P3HQWV30K-41" edge="1">
          <mxGeometry relative="1" as="geometry" />
        </mxCell>
        <mxCell id="tyAwpt8ZHr0P3HQWV30K-50" value="IDE" style="ellipse;whiteSpace=wrap;html=1;fillColor=#d5e8d4;strokeColor=#82b366;" parent="1" vertex="1">
          <mxGeometry x="524" y="957" width="120" height="80" as="geometry" />
        </mxCell>
        <mxCell id="tyAwpt8ZHr0P3HQWV30K-51" value="构建打包服务" style="ellipse;shape=cloud;whiteSpace=wrap;html=1;fillColor=#dae8fc;strokeColor=#6c8ebf;" parent="1" vertex="1">
          <mxGeometry x="970" y="813" width="120" height="80" as="geometry" />
        </mxCell>
        <mxCell id="tyAwpt8ZHr0P3HQWV30K-52" style="edgeStyle=orthogonalEdgeStyle;curved=1;rounded=0;orthogonalLoop=1;jettySize=auto;html=1;exitX=0.07;exitY=0.4;exitDx=0;exitDy=0;exitPerimeter=0;entryX=0.5;entryY=1;entryDx=0;entryDy=0;startArrow=none;startFill=0;" parent="1" source="tyAwpt8ZHr0P3HQWV30K-54" target="tyAwpt8ZHr0P3HQWV30K-50" edge="1">
          <mxGeometry relative="1" as="geometry" />
        </mxCell>
        <mxCell id="tyAwpt8ZHr0P3HQWV30K-53" value="1.8 推送设备消息" style="edgeLabel;html=1;align=center;verticalAlign=middle;resizable=0;points=[];" parent="tyAwpt8ZHr0P3HQWV30K-52" vertex="1" connectable="0">
          <mxGeometry x="0.268" y="-16" relative="1" as="geometry">
            <mxPoint as="offset" />
          </mxGeometry>
        </mxCell>
        <mxCell id="tyAwpt8ZHr0P3HQWV30K-54" value="websocket 服务" style="ellipse;shape=cloud;whiteSpace=wrap;html=1;fillColor=#dae8fc;strokeColor=#6c8ebf;" parent="1" vertex="1">
          <mxGeometry x="719" y="1225" width="120" height="80" as="geometry" />
        </mxCell>
        <mxCell id="tyAwpt8ZHr0P3HQWV30K-56" value="&lt;h2&gt;&lt;b&gt;设备链接流程&lt;/b&gt;&lt;/h2&gt;" style="text;html=1;strokeColor=none;fillColor=none;align=center;verticalAlign=middle;whiteSpace=wrap;rounded=0;" parent="1" vertex="1">
          <mxGeometry x="939.5" y="26" width="123" height="21" as="geometry" />
        </mxCell>
        <mxCell id="tyAwpt8ZHr0P3HQWV30K-57" value="&lt;h2&gt;&lt;b&gt;页面同步更新流程&lt;/b&gt;&lt;/h2&gt;" style="text;html=1;strokeColor=none;fillColor=none;align=center;verticalAlign=middle;whiteSpace=wrap;rounded=0;" parent="1" vertex="1">
          <mxGeometry x="861" y="773" width="153" height="20" as="geometry" />
        </mxCell>
        <mxCell id="tyAwpt8ZHr0P3HQWV30K-58" style="edgeStyle=orthogonalEdgeStyle;curved=1;rounded=0;orthogonalLoop=1;jettySize=auto;html=1;exitX=0.4;exitY=0.1;exitDx=0;exitDy=0;exitPerimeter=0;entryX=1;entryY=1;entryDx=0;entryDy=0;startArrow=none;startFill=0;" parent="1" source="tyAwpt8ZHr0P3HQWV30K-60" target="tyAwpt8ZHr0P3HQWV30K-25" edge="1">
          <mxGeometry relative="1" as="geometry" />
        </mxCell>
        <mxCell id="tyAwpt8ZHr0P3HQWV30K-59" value="1.5 推送构建打包结果&lt;br&gt;2.9 推送设备链接状态" style="edgeLabel;html=1;align=center;verticalAlign=middle;resizable=0;points=[];" parent="tyAwpt8ZHr0P3HQWV30K-58" vertex="1" connectable="0">
          <mxGeometry x="0.541" y="-9" relative="1" as="geometry">
            <mxPoint as="offset" />
          </mxGeometry>
        </mxCell>
        <mxCell id="tyAwpt8ZHr0P3HQWV30K-60" value="websocket 服务" style="ellipse;shape=cloud;whiteSpace=wrap;html=1;fillColor=#dae8fc;strokeColor=#6c8ebf;" parent="1" vertex="1">
          <mxGeometry x="713" y="354" width="120" height="80" as="geometry" />
        </mxCell>
        <mxCell id="tJhC_meMdQzW6-Cx2cmD-13" style="edgeStyle=orthogonalEdgeStyle;curved=1;rounded=0;orthogonalLoop=1;jettySize=auto;html=1;exitX=0.875;exitY=0.5;exitDx=0;exitDy=0;exitPerimeter=0;entryX=1;entryY=0.5;entryDx=0;entryDy=0;entryPerimeter=0;" parent="1" source="tyAwpt8ZHr0P3HQWV30K-63" target="tJhC_meMdQzW6-Cx2cmD-10" edge="1">
          <mxGeometry relative="1" as="geometry">
            <Array as="points">
              <mxPoint x="1251" y="1671" />
              <mxPoint x="1251" y="1893" />
            </Array>
          </mxGeometry>
        </mxCell>
        <mxCell id="tJhC_meMdQzW6-Cx2cmD-14" value="1.4 debugToken下发" style="edgeLabel;html=1;align=center;verticalAlign=middle;resizable=0;points=[];" parent="tJhC_meMdQzW6-Cx2cmD-13" vertex="1" connectable="0">
          <mxGeometry x="-0.0538" relative="1" as="geometry">
            <mxPoint as="offset" />
          </mxGeometry>
        </mxCell>
        <mxCell id="hFAg2DOEntcN9G8dbJdR-6" style="edgeStyle=orthogonalEdgeStyle;curved=1;rounded=0;orthogonalLoop=1;jettySize=auto;html=1;exitX=0.31;exitY=0.8;exitDx=0;exitDy=0;exitPerimeter=0;entryX=0.55;entryY=0.95;entryDx=0;entryDy=0;entryPerimeter=0;" edge="1" parent="1" source="tyAwpt8ZHr0P3HQWV30K-63" target="tyAwpt8ZHr0P3HQWV30K-69">
          <mxGeometry relative="1" as="geometry" />
        </mxCell>
        <mxCell id="hFAg2DOEntcN9G8dbJdR-7" value="1.2 订阅设备消息" style="edgeLabel;html=1;align=center;verticalAlign=middle;resizable=0;points=[];" vertex="1" connectable="0" parent="hFAg2DOEntcN9G8dbJdR-6">
          <mxGeometry x="0.0783" relative="1" as="geometry">
            <mxPoint as="offset" />
          </mxGeometry>
        </mxCell>
        <mxCell id="tyAwpt8ZHr0P3HQWV30K-63" value="阿里云 MQTT" style="ellipse;shape=cloud;whiteSpace=wrap;html=1;fillColor=#dae8fc;strokeColor=#6c8ebf;" parent="1" vertex="1">
          <mxGeometry x="1092" y="1631" width="120" height="80" as="geometry" />
        </mxCell>
        <mxCell id="tyAwpt8ZHr0P3HQWV30K-67" style="edgeStyle=orthogonalEdgeStyle;curved=1;rounded=0;orthogonalLoop=1;jettySize=auto;html=1;exitX=0.875;exitY=0.5;exitDx=0;exitDy=0;exitPerimeter=0;entryX=0.16;entryY=0.55;entryDx=0;entryDy=0;entryPerimeter=0;startArrow=none;startFill=0;" parent="1" source="tyAwpt8ZHr0P3HQWV30K-69" target="tyAwpt8ZHr0P3HQWV30K-63" edge="1">
          <mxGeometry relative="1" as="geometry" />
        </mxCell>
        <mxCell id="tyAwpt8ZHr0P3HQWV30K-68" value="1.3 收到心跳后每 30 秒推送 debugToken" style="edgeLabel;html=1;align=center;verticalAlign=middle;resizable=0;points=[];" parent="tyAwpt8ZHr0P3HQWV30K-67" vertex="1" connectable="0">
          <mxGeometry x="-0.1887" y="-3" relative="1" as="geometry">
            <mxPoint as="offset" />
          </mxGeometry>
        </mxCell>
        <mxCell id="hFAg2DOEntcN9G8dbJdR-9" style="edgeStyle=orthogonalEdgeStyle;curved=1;rounded=0;orthogonalLoop=1;jettySize=auto;html=1;exitX=0.55;exitY=0.95;exitDx=0;exitDy=0;exitPerimeter=0;entryX=0.4;entryY=0.1;entryDx=0;entryDy=0;entryPerimeter=0;" edge="1" parent="1" source="tyAwpt8ZHr0P3HQWV30K-69" target="hFAg2DOEntcN9G8dbJdR-5">
          <mxGeometry relative="1" as="geometry" />
        </mxCell>
        <mxCell id="hFAg2DOEntcN9G8dbJdR-11" value="1.5 推送设备状态" style="edgeLabel;html=1;align=center;verticalAlign=middle;resizable=0;points=[];" vertex="1" connectable="0" parent="hFAg2DOEntcN9G8dbJdR-9">
          <mxGeometry x="-0.0345" y="-2" relative="1" as="geometry">
            <mxPoint as="offset" />
          </mxGeometry>
        </mxCell>
        <mxCell id="tyAwpt8ZHr0P3HQWV30K-69" value="研发资产服务" style="ellipse;shape=cloud;whiteSpace=wrap;html=1;fillColor=#dae8fc;strokeColor=#6c8ebf;" parent="1" vertex="1">
          <mxGeometry x="711" y="1627" width="120" height="80" as="geometry" />
        </mxCell>
        <mxCell id="tyAwpt8ZHr0P3HQWV30K-77" value="&lt;h2&gt;&lt;b&gt;心跳检测 &amp;amp; token 更新&lt;/b&gt;&lt;/h2&gt;" style="text;html=1;strokeColor=none;fillColor=none;align=center;verticalAlign=middle;whiteSpace=wrap;rounded=0;" parent="1" vertex="1">
          <mxGeometry x="868" y="1594" width="226" height="16" as="geometry" />
        </mxCell>
        <mxCell id="tJhC_meMdQzW6-Cx2cmD-3" value="2.3 连接 MQTT 服务器" style="edgeStyle=orthogonalEdgeStyle;curved=1;rounded=0;orthogonalLoop=1;jettySize=auto;html=1;exitX=0;exitY=0;exitDx=50;exitDy=0;exitPerimeter=0;entryX=0.55;entryY=0.95;entryDx=0;entryDy=0;entryPerimeter=0;" parent="1" source="tJhC_meMdQzW6-Cx2cmD-1" target="tyAwpt8ZHr0P3HQWV30K-9" edge="1">
          <mxGeometry relative="1" as="geometry" />
        </mxCell>
        <mxCell id="tJhC_meMdQzW6-Cx2cmD-1" value="设备" style="shape=cube;whiteSpace=wrap;html=1;boundedLbl=1;backgroundOutline=1;darkOpacity=0.05;darkOpacity2=0.1;" parent="1" vertex="1">
          <mxGeometry x="1191" y="546" width="120" height="80" as="geometry" />
        </mxCell>
        <mxCell id="tJhC_meMdQzW6-Cx2cmD-8" style="edgeStyle=orthogonalEdgeStyle;curved=1;rounded=0;orthogonalLoop=1;jettySize=auto;html=1;exitX=0;exitY=0;exitDx=110;exitDy=10;exitPerimeter=0;entryX=0.875;entryY=0.5;entryDx=0;entryDy=0;entryPerimeter=0;" parent="1" source="tJhC_meMdQzW6-Cx2cmD-4" target="tyAwpt8ZHr0P3HQWV30K-31" edge="1">
          <mxGeometry relative="1" as="geometry">
            <Array as="points">
              <mxPoint x="1288" y="1232" />
              <mxPoint x="1288" y="1130" />
              <mxPoint x="1290" y="1130" />
              <mxPoint x="1290" y="997" />
            </Array>
          </mxGeometry>
        </mxCell>
        <mxCell id="tJhC_meMdQzW6-Cx2cmD-9" value="1.5 发送设备消息" style="edgeLabel;html=1;align=center;verticalAlign=middle;resizable=0;points=[];" parent="tJhC_meMdQzW6-Cx2cmD-8" vertex="1" connectable="0">
          <mxGeometry x="0.0364" relative="1" as="geometry">
            <mxPoint as="offset" />
          </mxGeometry>
        </mxCell>
        <mxCell id="tJhC_meMdQzW6-Cx2cmD-4" value="设备" style="shape=cube;whiteSpace=wrap;html=1;boundedLbl=1;backgroundOutline=1;darkOpacity=0.05;darkOpacity2=0.1;" parent="1" vertex="1">
          <mxGeometry x="1135" y="1222" width="120" height="80" as="geometry" />
        </mxCell>
        <mxCell id="hFAg2DOEntcN9G8dbJdR-3" value="1.1 心跳上报" style="edgeStyle=orthogonalEdgeStyle;curved=1;rounded=0;orthogonalLoop=1;jettySize=auto;html=1;exitX=0;exitY=0;exitDx=50;exitDy=0;exitPerimeter=0;entryX=0.55;entryY=0.95;entryDx=0;entryDy=0;entryPerimeter=0;" edge="1" parent="1" source="tJhC_meMdQzW6-Cx2cmD-10" target="tyAwpt8ZHr0P3HQWV30K-63">
          <mxGeometry relative="1" as="geometry" />
        </mxCell>
        <mxCell id="tJhC_meMdQzW6-Cx2cmD-10" value="设备" style="shape=cube;whiteSpace=wrap;html=1;boundedLbl=1;backgroundOutline=1;darkOpacity=0.05;darkOpacity2=0.1;" parent="1" vertex="1">
          <mxGeometry x="1094" y="1853" width="120" height="80" as="geometry" />
        </mxCell>
        <mxCell id="hFAg2DOEntcN9G8dbJdR-10" style="edgeStyle=orthogonalEdgeStyle;curved=1;rounded=0;orthogonalLoop=1;jettySize=auto;html=1;exitX=0.07;exitY=0.4;exitDx=0;exitDy=0;exitPerimeter=0;" edge="1" parent="1" source="hFAg2DOEntcN9G8dbJdR-5" target="hFAg2DOEntcN9G8dbJdR-8">
          <mxGeometry relative="1" as="geometry" />
        </mxCell>
        <mxCell id="hFAg2DOEntcN9G8dbJdR-12" value="1.6 同步设备状态" style="edgeLabel;html=1;align=center;verticalAlign=middle;resizable=0;points=[];" vertex="1" connectable="0" parent="hFAg2DOEntcN9G8dbJdR-10">
          <mxGeometry x="0.2275" y="-33" relative="1" as="geometry">
            <mxPoint as="offset" />
          </mxGeometry>
        </mxCell>
        <mxCell id="hFAg2DOEntcN9G8dbJdR-5" value="websocket 服务" style="ellipse;shape=cloud;whiteSpace=wrap;html=1;fillColor=#dae8fc;strokeColor=#6c8ebf;" vertex="1" parent="1">
          <mxGeometry x="713" y="1853" width="120" height="80" as="geometry" />
        </mxCell>
        <mxCell id="hFAg2DOEntcN9G8dbJdR-8" value="IDE" style="ellipse;whiteSpace=wrap;html=1;fillColor=#d5e8d4;strokeColor=#82b366;" vertex="1" parent="1">
          <mxGeometry x="504" y="1631" width="120" height="80" as="geometry" />
        </mxCell>
      </root>
    </mxGraphModel>
  </diagram>
</mxfile>
